<?xml version="1.0" encoding="UTF-8"?>
<svg id="uuid-ecbeae92-2fa3-4c16-a593-7a140fc83fa9" data-name="Layer 2" xmlns="http://www.w3.org/2000/svg" viewBox="0 0 158.7 179.6">
  <g id="uuid-a404609b-62ab-4b99-bbb6-a76c62866f82" data-name="Layer 1">
    <g>
      <g>
        <polyline points="58.5 68.2 42.7 59.1 79.7 37.7 116.7 59.1 100.8 68.2" fill="#204059" stroke-width="0"/>
        <polyline points="100.8 68.2 79.7 80.4 58.5 68.2" fill="#204059" stroke-width="0"/>
        <polygon points="33 64.7 79.7 91.6 79.7 145.5 33 118.6 33 64.7" fill="#128d8d" stroke-width="0"/>
        <polygon points="126.4 64.7 79.7 91.6 79.7 145.5 126.4 118.6 126.4 64.7" fill="#057a72" stroke-width="0"/>
      </g>
      <g>
        <polygon points="22.1 65 22.5 124.6 74.3 154.1 74.5 179.6 .5 137.5 0 52.3 22.1 65" fill="#231f20" stroke-width="0"/>
        <polygon points="85.2 179.6 85.1 154.1 136.6 123.9 136.2 64.3 158.2 51.4 158.7 136.5 85.2 179.6" fill="#231f20" stroke-width="0"/>
        <polygon points="78.8 0 152.8 42.1 130.8 55 78.9 25.5 27.4 55.6 5.3 43.1 78.8 0" fill="#231f20" stroke-width="0"/>
      </g>
      <polygon points="22.1 65 22.5 124.6 74.3 154.1 74.5 179.6 .5 137.5 0 52.3 22.1 65" fill="#204059" stroke-width="0"/>
      <polygon points="85.2 179.6 85.1 154.1 136.6 123.9 136.2 64.3 158.2 51.4 158.7 136.5 85.2 179.6" fill="#204059" stroke-width="0"/>
      <polygon points="78.8 0 152.8 42.1 130.8 55 78.9 25.5 27.4 55.6 5.3 43.1 78.8 0" fill="#128d8d" stroke-width="0"/>
    </g>
  </g>
</svg>