<?xml version="1.0" encoding="UTF-8"?>
<svg width="206px" height="206px" viewBox="0 0 206 206" version="1.1" xmlns="http://www.w3.org/2000/svg" xmlns:xlink="http://www.w3.org/1999/xlink">
    <title>Group 63</title>
    <g id="Logo" stroke="none" stroke-width="1" fill="none" fill-rule="evenodd">
        <g transform="translate(-445, -94)" id="Group-63">
            <g transform="translate(445.8039, 94)" id="Group-60-Copy-2">
                <path d="M205.045752,102.810127 C205.045752,160.146543 159.699095,205.620253 102.522876,205.620253 C45.3466566,205.620253 0,160.146543 0,102.810127 C0,45.4737098 45.3466566,0 102.522876,0 C159.699095,0 205.045752,45.4737098 205.045752,102.810127 Z" id="uuid-cb64d2fd-8ba5-4d3b-b763-d8c065cc8131-copy" fill="#0154D2"></path>
                <path d="M102.522876,175.772152 C61.7073171,175.772152 29.7647059,143.740043 29.7647059,102.810127 C29.7647059,61.8802099 61.7073171,29.8481013 102.522876,29.8481013 C143.338435,29.8481013 175.281046,61.8802099 175.281046,102.810127 C175.281046,143.740043 143.338435,175.772152 102.522876,175.772152" id="uuid-a3ed0301-f716-4af6-aea8-c326fd20dcca-copy" fill="#ECEFF1"></path>
                <g id="Group-3-Copy-2" transform="translate(54.5686, 53.0633)" fill="#0154D2">
                    <path d="M97.5620915,0 L34.8438542,34.9407782 L0,97.835443 L62.7182373,62.8939626 L97.5620915,0 Z M39.1724617,39.2822159 L82.4116153,15.1929251 L58.3896298,58.5525249 L15.1511765,82.6418157 L39.1724617,39.2822159 Z" id="Fill-1"></path>
                    <polygon id="Fill-2" points="36.5857843 39.406086 58.2663924 61.1471519 85.3668301 12.2294304"></polygon>
                </g>
            </g>
        </g>
    </g>
</svg>