<?xml version="1.0" encoding="UTF-8"?>
<svg width="24px" height="24px" viewBox="0 0 24 24" version="1.1" xmlns="http://www.w3.org/2000/svg" xmlns:xlink="http://www.w3.org/1999/xlink">
    <title>Icons/action/manage search</title>
    <g id="Icons/action/manage-search" stroke="none" stroke-width="1" fill="none" fill-rule="evenodd">
        <rect id="Size" fill="#D8D8D8" opacity="0" x="0" y="0" width="24" height="24"></rect>
        <path d="M7,9 L2,9 L2,7 L7,7 L7,9 Z M7,12 L2,12 L2,14 L7,14 L7,12 Z M20.59,19 L16.76,15.17 C15.96,15.69 15.02,16 14,16 C11.24,16 9,13.76 9,11 C9,8.24 11.24,6 14,6 C16.76,6 19,8.24 19,11 C19,12.02 18.69,12.96 18.17,13.75 L22,17.59 L20.59,19 Z M17,11 C17,9.35 15.65,8 14,8 C12.35,8 11,9.35 11,11 C11,12.65 12.35,14 14,14 C15.65,14 17,12.65 17,11 Z M2,19 L12,19 L12,17 L2,17 L2,19 Z" id="Shape" fill-opacity="0.6" fill="#000000"></path>
    </g>
</svg>