<?xml version="1.0" encoding="UTF-8"?>
<svg width="739px" height="113px" viewBox="0 0 739 113" version="1.1" xmlns="http://www.w3.org/2000/svg" xmlns:xlink="http://www.w3.org/1999/xlink">
    <title>Group 61</title>
    <defs>
        <polygon id="path-1" points="0 0 101.073991 0 101.073991 113 0 113"></polygon>
        <polygon id="path-3" points="0 0 86.161435 0 86.161435 106.352941 0 106.352941"></polygon>
        <polygon id="path-5" points="0 0 86.161435 0 86.161435 106.352941 0 106.352941"></polygon>
    </defs>
    <g id="Logo" stroke="none" stroke-width="1" fill="none" fill-rule="evenodd">
        <g transform="translate(-209, -477)" id="Group-61">
            <g transform="translate(209, 477)">
                <g id="Group-60-Copy" transform="translate(114.3296, 1.6618)">
                    <path d="M106.044843,53.1764706 C106.044843,82.8325792 82.5926181,106.352941 53.0224215,106.352941 C23.4522249,106.352941 0,82.8325792 0,53.1764706 C0,23.520362 23.4522249,0 53.0224215,0 C82.5926181,0 106.044843,23.520362 106.044843,53.1764706 Z" id="uuid-cb64d2fd-8ba5-4d3b-b763-d8c065cc8131-copy" fill="#0154D2"></path>
                    <path d="M52.9937174,90.6871748 C31.9977514,90.6871748 15.5661258,74.2078095 15.5661258,53.1508426 C15.5661258,32.0938758 31.9977514,15.6145104 52.9937174,15.6145104 C73.9896835,15.6145104 90.4213091,32.0938758 90.4213091,53.1508426 C90.4213091,74.2078095 73.9896835,90.6871748 52.9937174,90.6871748" id="uuid-a3ed0301-f716-4af6-aea8-c326fd20dcca-copy" fill="#ECEFF1"></path>
                    <g id="Group-3-Copy-2" transform="translate(28.061, 28.1343)" fill="#0154D2">
                        <path d="M49.9034556,0 L17.8227906,17.8742129 L0,50.0484429 L32.0806649,32.1738707 L49.9034556,0 Z M20.0368931,20.0951074 L42.1539178,7.77205296 L29.8665624,29.9529762 L7.749896,42.2760307 L20.0368931,20.0951074 Z" id="Fill-1"></path>
                        <polygon id="Fill-2" points="18.7137958 20.1584741 29.8035259 31.2802768 43.6655236 6.25605536"></polygon>
                    </g>
                </g>
                <g id="Group-3">
                    <mask id="mask-2" fill="white">
                        <use xlink:href="#path-1"></use>
                    </mask>
                    <g id="Clip-2"></g>
                    <path d="M74.3235814,31.386788 C72.904999,29.1178636 71.1317711,27.1262521 69.0038976,25.4119537 C66.8760241,23.7102604 64.4695005,22.3615108 61.7843268,21.4035205 C59.0991532,20.4455302 56.2873203,19.966535 53.3488283,19.966535 C47.965815,19.966535 43.418752,21.0127613 39.6696416,23.0673984 C35.9205311,25.1346407 32.8807119,27.9203757 30.5501838,31.386788 C28.2196556,34.8658055 26.5224232,38.8238181 25.4584865,43.2608259 C24.3945497,47.6978337 23.8625813,52.2861031 23.8625813,57.0256342 C23.8625813,61.5760882 24.3945497,65.9752805 25.4584865,70.2610267 C26.5224232,74.559378 28.2196556,78.4039444 30.5501838,81.8325413 C32.8807119,85.2611383 35.9205311,88.0090578 39.6696416,90.0763001 C43.418752,92.1435424 47.965815,93.1771635 53.3488283,93.1771635 C60.6443946,93.1771635 66.3440558,90.9712648 70.4478118,86.5216518 C74.5515678,82.084644 77.0594187,76.2484662 77.9713645,68.9753029 L101.073991,68.9753029 C100.466027,75.7442608 98.882788,81.8325413 96.3622711,87.2905651 C93.8290884,92.7233786 90.4852872,97.3620686 86.3308675,101.19403 C82.1764478,105.038596 77.312737,107.950383 71.739735,109.967204 C66.166733,111.996631 60.0364308,113.005042 53.3488283,113.005042 C45.0273231,113.005042 37.5670999,111.555451 30.9301612,108.68148 C24.2932224,105.80751 18.6948886,101.862102 14.1351596,96.8074426 C9.57543073,91.7653883 6.07963856,85.8409745 3.64778313,79.0342012 C1.21592771,72.2274279 0,64.8912389 0,57.0256342 C0,48.9709524 1.21592771,41.4708966 3.64778313,34.5632822 C6.07963856,27.6556678 9.57543073,21.6430181 14.1351596,16.4875176 C18.6948886,11.3446222 24.2932224,7.32358387 30.9301612,4.38658724 C37.5670999,1.46219575 45.0273231,0 53.3488283,0 C59.3271396,0 64.9761371,0.857149231 70.2958208,2.57144769 C75.6155046,4.29835129 80.3778881,6.79416817 84.5829714,10.0715035 C88.7880548,13.3362336 92.2585151,17.4076925 94.9943525,22.2354595 C97.7301898,27.0758316 99.4527541,32.6346965 100.162045,38.8742387 L77.0594187,38.8742387 C76.6541095,36.1515293 75.7421637,33.6683176 74.3235814,31.386788" id="Fill-1" fill="#0154D2" mask="url(#mask-2)"></path>
                </g>
                <polygon id="Fill-7" fill="#0154D2" points="264.353659 1.66176471 288.822231 74.8104438 289.115268 74.8104438 312.265175 1.66176471 344.64574 1.66176471 344.64574 108.014706 323.107536 108.014706 323.107536 32.6441341 322.814499 32.6441341 297.17378 108.014706 279.445054 108.014706 253.804335 33.4013154 253.511298 33.4013154 253.511298 108.014706 231.973094 108.014706 231.973094 1.66176471"></polygon>
                <path d="M404.139523,51.7102076 C406.760359,51.7102076 409.284127,51.5116027 411.710826,51.1143928 C414.137526,50.717183 416.273022,49.9475888 418.117314,48.8180233 C419.961606,47.6636321 421.441893,46.049967 422.558175,43.9646153 C423.674457,41.8792635 424.232598,39.1484457 424.232598,35.7721618 C424.232598,32.395878 423.674457,29.6774729 422.558175,27.5797084 C421.441893,25.4943566 419.961606,23.8806915 418.117314,22.7387131 C416.273022,21.5967348 414.137526,20.8271407 411.710826,20.4299308 C409.284127,20.0327209 406.760359,19.8465288 404.139523,19.8465288 L386.37608,19.8465288 L386.37608,51.7102076 L404.139523,51.7102076 Z M408.099088,1.66176471 C414.602644,1.66176471 420.13552,2.62996375 424.697715,4.56636184 C429.259911,6.50275993 432.972762,9.05979843 435.836268,12.2374773 C438.699774,15.4151563 440.786735,19.0396963 442.097153,23.1110974 C443.407571,27.1824985 444.06278,31.4028533 444.06278,35.7721618 C444.06278,40.0545807 443.407571,44.237697 442.097153,48.3587494 C440.786735,52.4798017 438.699774,56.1291674 435.836268,59.3068463 C432.972762,62.4845252 429.259911,65.0415637 424.697715,66.9779618 C420.13552,68.9143599 414.602644,69.8825589 408.099088,69.8825589 L384.074759,69.8825589 L384.074759,108.014706 L361.215247,108.014706 L361.215247,1.66176471 L408.099088,1.66176471 Z" id="Fill-9" fill="#0154D2"></path>
                <path d="M512.185767,66.9082826 L498.72601,27.8745564 L498.426905,27.8745564 L484.518489,66.9082826 L512.185767,66.9082826 Z M508.520061,1.66176471 L548.450673,108.014706 L524.073557,108.014706 L515.997703,84.3214202 L476.067091,84.3214202 L467.692131,108.014706 L444.06278,108.014706 L484.442051,1.66176471 L508.520061,1.66176471 Z" id="Fill-11" fill="#0154D2"></path>
                <g id="Group-15" transform="translate(555.0785, 1.6618)">
                    <mask id="mask-4" fill="white">
                        <use xlink:href="#path-3"></use>
                    </mask>
                    <g id="Clip-14"></g>
                    <path d="M21.3302821,79.0110755 C22.5726859,81.3837804 24.2212601,83.3056715 26.2760047,84.7767485 C28.3307494,86.2478256 30.7438798,87.3392699 33.5153958,88.0629449 C36.2869119,88.7628929 39.1539974,89.1306622 42.1166525,89.1306622 C44.1236124,89.1306622 46.2739266,88.9645728 48.567595,88.6323941 C50.8612635,88.2883519 53.0115777,87.6595851 55.0185376,86.6986396 C57.0254975,85.7495576 58.6979641,84.4445698 60.0359373,82.7836764 C61.3739106,81.1346464 62.0428972,79.0110755 62.0428972,76.4485541 C62.0428972,73.7080799 61.1588792,71.4658737 59.3908431,69.7693896 C57.622807,68.0491785 55.3052461,66.6255555 52.4381606,65.4866571 C49.571075,64.3596223 46.3217114,63.3630862 42.6900696,62.4970489 C39.0584279,61.6428751 35.3790014,60.6937931 31.6517902,59.6498029 C27.8290094,58.7007209 24.1017982,57.5380955 20.4701565,56.1619266 C16.8385147,54.7857577 13.5891511,53.0180925 10.7220655,50.8233404 C7.85497996,48.6404519 5.53741913,45.9118411 3.76938303,42.6493718 C2.00134693,39.3631754 1.11732888,35.4007581 1.11732888,30.7621199 C1.11732888,25.5303055 2.24027073,20.998439 4.48615442,17.1546569 C6.73203812,13.3108749 9.67080083,10.1077232 13.3024425,7.55706533 C16.9340843,4.99454396 21.0435736,3.09637998 25.6309105,1.85070988 C30.2182474,0.628766817 34.8055843,-8.21394672e-15 39.3929212,-8.21394672e-15 C44.7448143,-8.21394672e-15 49.8816759,0.605039767 54.8035062,1.77952873 C59.7253364,2.97774474 64.0976419,4.88777224 67.9204226,7.55706533 C71.7432034,10.2026314 74.7775356,13.5955995 77.0234193,17.7241061 C79.269303,21.8644763 80.3922449,26.8590202 80.3922449,32.7551921 L58.6023945,32.7551921 C58.4112555,29.7181297 57.7661612,27.1911989 56.6671118,25.1981268 C55.5680623,23.2050546 54.1106271,21.6390693 52.2948063,20.5001709 C50.4789854,19.3731361 48.4003484,18.5545529 46.0588952,18.0800119 C43.717442,17.6054709 41.1609573,17.3800639 38.3894413,17.3800639 C36.5736204,17.3800639 34.7577996,17.5580168 32.9419787,17.9495131 C31.1261578,18.3291459 29.4775836,18.9816398 27.9962561,19.9425853 C26.5149285,20.8916673 25.2964172,22.0661562 24.340722,23.4897792 C23.3850268,24.9134022 22.9071792,26.7285215 22.9071792,28.8995465 C22.9071792,30.8926187 23.2894573,32.5060581 24.0540134,33.7517282 C24.8185696,34.9736712 26.3237895,36.1244332 28.5696732,37.1684233 C30.8155569,38.2124135 33.9215663,39.2445402 37.8877013,40.2885304 C41.8538363,41.3325206 47.0384827,42.6730989 53.4416405,44.2746747 C55.3530309,44.6543075 58.005085,45.342392 61.397803,46.338928 C64.7905209,47.3354641 68.1593464,48.93704 71.5042796,51.108065 C74.8492128,53.2909536 77.7401907,56.2093807 80.1772134,59.8752099 C82.6142362,63.517312 83.8327475,68.1915408 83.8327475,73.8860327 C83.8327475,78.5365345 82.9248371,82.8548575 81.1090163,86.8410019 C79.2931954,90.8271462 76.5933565,94.2675684 73.0094995,97.1622685 C69.4256426,100.056969 64.9816599,102.322902 59.6775516,103.936341 C54.3734433,105.537917 48.2331017,106.3565 41.2565268,106.3565 C35.6179252,106.3565 30.1465703,105.656552 24.842462,104.280383 C19.5383537,102.916078 14.8554472,100.745053 10.7937427,97.8028988 C6.73203812,94.8726082 3.50656685,91.1237343 1.11732888,86.5681408 C-1.2719091,82.0006837 -2.41874332,76.5909164 -2.32317381,70.3388388 L19.4666765,70.3388388 C19.4666765,73.755534 20.0878784,76.650234 21.3302821,79.0110755" id="Fill-13" fill="#0154D2" mask="url(#mask-4)"></path>
                </g>
                <g id="Group-18" transform="translate(652.8386, 1.6618)">
                    <mask id="mask-6" fill="white">
                        <use xlink:href="#path-5"></use>
                    </mask>
                    <g id="Clip-17"></g>
                    <path d="M21.3302821,79.0110755 C22.5726859,81.3837804 24.2212601,83.3056715 26.2760047,84.7767485 C28.3307494,86.2478256 30.7438798,87.3392699 33.5153958,88.0629449 C36.2869119,88.7628929 39.1539974,89.1306622 42.1166525,89.1306622 C44.1236124,89.1306622 46.2739266,88.9645728 48.567595,88.6323941 C50.8612635,88.2883519 53.0115777,87.6595851 55.0185376,86.6986396 C57.0254975,85.7495576 58.6979641,84.4445698 60.0359373,82.7836764 C61.3739106,81.1346464 62.0428972,79.0110755 62.0428972,76.4485541 C62.0428972,73.7080799 61.1588792,71.4658737 59.3908431,69.7693896 C57.622807,68.0491785 55.3052461,66.6255555 52.4381606,65.4866571 C49.571075,64.3596223 46.3217114,63.3630862 42.6900696,62.4970489 C39.0584279,61.6428751 35.3790014,60.6937931 31.6517902,59.6498029 C27.8290094,58.7007209 24.1017982,57.5380955 20.4701565,56.1619266 C16.8385147,54.7857577 13.5891511,53.0180925 10.7220655,50.8233404 C7.85497996,48.6404519 5.53741913,45.9118411 3.76938303,42.6493718 C2.00134693,39.3631754 1.11732888,35.4007581 1.11732888,30.7621199 C1.11732888,25.5303055 2.24027073,20.998439 4.48615442,17.1546569 C6.73203812,13.3108749 9.67080083,10.1077232 13.3024425,7.55706533 C16.9340843,4.99454396 21.0435736,3.09637998 25.6309105,1.85070988 C30.2182474,0.628766817 34.8055843,-8.21394672e-15 39.3929212,-8.21394672e-15 C44.7448143,-8.21394672e-15 49.8816759,0.605039767 54.8035062,1.77952873 C59.7253364,2.97774474 64.0976419,4.88777224 67.9204226,7.55706533 C71.7432034,10.2026314 74.7775356,13.5955995 77.0234193,17.7241061 C79.269303,21.8644763 80.3922449,26.8590202 80.3922449,32.7551921 L58.6023945,32.7551921 C58.4112555,29.7181297 57.7661612,27.1911989 56.6671118,25.1981268 C55.5680623,23.2050546 54.1106271,21.6390693 52.2948063,20.5001709 C50.4789854,19.3731361 48.4003484,18.5545529 46.0588952,18.0800119 C43.717442,17.6054709 41.1609573,17.3800639 38.3894413,17.3800639 C36.5736204,17.3800639 34.7577996,17.5580168 32.9419787,17.9495131 C31.1261578,18.3291459 29.4775836,18.9816398 27.9962561,19.9425853 C26.5149285,20.8916673 25.2964172,22.0661562 24.340722,23.4897792 C23.3850268,24.9134022 22.9071792,26.7285215 22.9071792,28.8995465 C22.9071792,30.8926187 23.2894573,32.5060581 24.0540134,33.7517282 C24.8185696,34.9736712 26.3237895,36.1244332 28.5696732,37.1684233 C30.8155569,38.2124135 33.9215663,39.2445402 37.8877013,40.2885304 C41.8538363,41.3325206 47.0384827,42.6730989 53.4416405,44.2746747 C55.3530309,44.6543075 58.005085,45.342392 61.397803,46.338928 C64.7905209,47.3354641 68.1593464,48.93704 71.5042796,51.108065 C74.8492128,53.2909536 77.7401907,56.2093807 80.1772134,59.8752099 C82.6142362,63.517312 83.8327475,68.1915408 83.8327475,73.8860327 C83.8327475,78.5365345 82.9248371,82.8548575 81.1090163,86.8410019 C79.2931954,90.8271462 76.5933565,94.2675684 73.0094995,97.1622685 C69.4256426,100.056969 64.9816599,102.322902 59.6775516,103.936341 C54.3734433,105.537917 48.2331017,106.3565 41.2565268,106.3565 C35.6179252,106.3565 30.1465703,105.656552 24.842462,104.280383 C19.5383537,102.916078 14.8554472,100.745053 10.7937427,97.8028988 C6.73203812,94.8726082 3.50656685,91.1237343 1.11732888,86.5681408 C-1.2719091,82.0006837 -2.41874332,76.5909164 -2.32317381,70.3388388 L19.4666765,70.3388388 C19.4666765,73.755534 20.0878784,76.650234 21.3302821,79.0110755" id="Fill-16" fill="#0154D2" mask="url(#mask-6)"></path>
                </g>
            </g>
        </g>
    </g>
</svg>