<?xml version="1.0" encoding="UTF-8"?>
<svg width="737px" height="113px" viewBox="0 0 737 113" version="1.1" xmlns="http://www.w3.org/2000/svg" xmlns:xlink="http://www.w3.org/1999/xlink">
    <title>Group 61 Copy 2</title>
    <defs>
        <polygon id="path-1" points="0 0 100.901799 0 100.901799 113 0 113"></polygon>
        <polygon id="path-3" points="0 0 85.4827586 0 85.4827586 106.081633 0 106.081633"></polygon>
        <polygon id="path-5" points="0 0 85.4827586 0 85.4827586 106.081633 0 106.081633"></polygon>
    </defs>
    <g id="Logo" stroke="none" stroke-width="1" fill="none" fill-rule="evenodd">
        <g transform="translate(-210, -828)" id="Group-61-Copy-2">
            <g transform="translate(210, 828)" id="Group-61-Copy">
                <g id="Group-60-Copy" transform="translate(113.2069, 2.3061)">
                    <path d="M106.275862,53.0408163 C106.275862,82.6212716 82.7725464,106.081633 53.137931,106.081633 C23.5033156,106.081633 0,82.6212716 0,53.0408163 C0,23.4603611 23.5033156,0 53.137931,0 C82.7725464,0 106.275862,23.4603611 106.275862,53.0408163 Z" id="uuid-cb64d2fd-8ba5-4d3b-b763-d8c065cc8131-copy" fill="#FFFFFF"></path>
                    <path d="M15.6000366,53.0152537 C15.6000366,32.0120037 32.0674586,15.5746775 53.1091644,15.5746775 C74.1508703,15.5746775 90.6182922,32.0120037 90.6182922,53.0152537 C90.6182922,74.0185038 74.1508703,90.45583 53.1091644,90.45583 C32.0674586,90.45583 15.6000366,74.0185038 15.6000366,53.0152537 Z" id="uuid-a3ed0301-f716-4af6-aea8-c326fd20dcca-copy" fill="#0154D2"></path>
                    <g id="Group-3-Copy-2" transform="translate(28.1222, 28.0626)" fill="#FFFFFF">
                        <path d="M50.0121704,0 L17.8616176,17.8286155 L0,49.9207683 L32.1505528,32.0917945 L50.0121704,0 Z M20.0805435,20.0438444 L42.2457502,7.75222629 L29.9316268,29.8765656 L7.76677917,42.1681837 L20.0805435,20.0438444 Z" id="Fill-1"></path>
                        <polygon id="Fill-2" points="18.7545639 20.1070494 29.868453 31.2004802 43.7606491 6.24009604"></polygon>
                    </g>
                </g>
                <g id="Group-3">
                    <mask id="mask-2" fill="white">
                        <use xlink:href="#path-1"></use>
                    </mask>
                    <g id="Clip-2"></g>
                    <path d="M74.196962,31.386788 C72.7807964,29.1178636 71.0105894,27.1262521 68.886341,25.4119537 C66.7620926,23.7102604 64.3596688,22.3615108 61.6790697,21.4035205 C58.9984705,20.4455302 56.191428,19.966535 53.2579421,19.966535 C47.8840994,19.966535 43.3447829,21.0127613 39.6020595,23.0673984 C35.8593361,25.1346407 32.8246955,27.9203757 30.4981378,31.386788 C28.17158,34.8658055 26.477239,38.8238181 25.4151148,43.2608259 C24.3529906,47.6978337 23.8219285,52.2861031 23.8219285,57.0256342 C23.8219285,61.5760882 24.3529906,65.9752805 25.4151148,70.2610267 C26.477239,74.559378 28.17158,78.4039444 30.4981378,81.8325413 C32.8246955,85.2611383 35.8593361,88.0090578 39.6020595,90.0763001 C43.3447829,92.1435424 47.8840994,93.1771635 53.2579421,93.1771635 C60.5410795,93.1771635 66.2310305,90.9712648 70.3277953,86.5216518 C74.4245601,82.084644 76.9281386,76.2484662 77.8385307,68.9753029 L100.901799,68.9753029 C100.294871,75.7442608 98.714329,81.8325413 96.1981062,87.2905651 C93.6692391,92.7233786 90.3311344,97.3620686 86.1837923,101.19403 C82.0364502,105.038596 77.1810253,107.950383 71.6175176,109.967204 C66.0540098,111.996631 59.9341513,113.005042 53.2579421,113.005042 C44.9506135,113.005042 37.5030998,111.555451 30.8774678,108.68148 C24.2518359,105.80751 18.6630395,101.862102 14.1110787,96.8074426 C9.55911781,91.7653883 6.06928115,85.8409745 3.64156869,79.0342012 C1.21385623,72.2274279 0,64.8912389 0,57.0256342 C0,48.9709524 1.21385623,41.4708966 3.64156869,34.5632822 C6.06928115,27.6556678 9.55911781,21.6430181 14.1110787,16.4875176 C18.6630395,11.3446222 24.2518359,7.32358387 30.8774678,4.38658724 C37.5030998,1.46219575 44.9506135,0 53.2579421,0 C59.2260685,0 64.8654423,0.857149231 70.1760633,2.57144769 C75.4866843,4.29835129 80.2409545,6.79416817 84.438874,10.0715035 C88.6367934,13.3362336 92.1013414,17.4076925 94.832518,22.2354595 C97.5636945,27.0758316 99.2833241,32.6346965 99.9914069,38.8742387 L76.9281386,38.8742387 C76.5235198,36.1515293 75.6131276,33.6683176 74.196962,31.386788" id="Fill-1" fill="#FFFFFF" mask="url(#mask-2)"></path>
                </g>
                <polygon id="Fill-7" fill="#FFFFFF" points="263.568584 2.30612245 288.153177 75.2681978 288.447603 75.2681978 311.707278 2.30612245 344.241379 2.30612245 344.241379 108.387755 322.601049 108.387755 322.601049 33.2094552 322.306623 33.2094552 296.544325 108.387755 278.731537 108.387755 252.969239 33.9647049 252.674813 33.9647049 252.674813 108.387755 231.034483 108.387755 231.034483 2.30612245"></polygon>
                <path d="M403.506394,52.2268908 C406.137507,52.2268908 408.671171,52.0287925 411.107387,51.6325959 C413.543603,51.2363993 415.687473,50.4687685 417.538998,49.3420845 C419.390522,48.1906382 420.876614,46.5810896 421.997273,44.5010576 C423.117932,42.4210256 423.678262,39.6971741 423.678262,36.3295032 C423.678262,32.9618324 423.117932,30.250362 421.997273,28.1579489 C420.876614,26.0779169 419.390522,24.4683683 417.538998,23.3293031 C415.687473,22.190238 413.543603,21.4226071 411.107387,21.0264106 C408.671171,20.630214 406.137507,20.4444968 403.506394,20.4444968 L385.673293,20.4444968 L385.673293,52.2268908 L403.506394,52.2268908 Z M407.481486,2.30612245 C414.010545,2.30612245 419.565117,3.2718516 424.145203,5.2033099 C428.725289,7.13476819 432.4527,9.68528364 435.327435,12.8548562 C438.20217,16.0244288 440.297315,19.6397226 441.612872,23.7007374 C442.928429,27.7617523 443.586207,31.9713409 443.586207,36.3295032 C443.586207,40.6009975 442.928429,44.7734427 441.612872,48.8839822 C440.297315,52.9945216 438.20217,56.6345776 435.327435,59.8041502 C432.4527,62.9737228 428.725289,65.5242383 424.145203,67.4556966 C419.565117,69.3871549 414.010545,70.352884 407.481486,70.352884 L383.362948,70.352884 L383.362948,108.387755 L360.413793,108.387755 L360.413793,2.30612245 L407.481486,2.30612245 Z" id="Fill-9" fill="#FFFFFF"></path>
                <path d="M511.433554,67.3861951 L498.028258,28.4520447 L497.730363,28.4520447 L483.878223,67.3861951 L511.433554,67.3861951 Z M507.78268,2.30612245 L547.551724,108.387755 L523.273244,108.387755 L515.230066,84.7549115 L475.461022,84.7549115 L467.119949,108.387755 L443.586207,108.387755 L483.802095,2.30612245 L507.78268,2.30612245 Z" id="Fill-11" fill="#FFFFFF"></path>
                <g id="Group-15" transform="translate(554.4828, 2.3061)">
                    <mask id="mask-4" fill="white">
                        <use xlink:href="#path-3"></use>
                    </mask>
                    <g id="Clip-14"></g>
                    <path d="M21.1622678,78.8095166 C22.3948854,81.1761688 24.0304741,83.093157 26.0690339,84.5604813 C28.1075938,86.0278057 30.5017164,87.1164656 33.2514018,87.8382946 C36.0010871,88.5364569 38.8455892,88.903288 41.7849081,88.903288 C43.7760596,88.903288 45.9094361,88.7376224 48.1850378,88.4062911 C50.4606395,88.0631265 52.5940161,87.4359637 54.5851676,86.4774696 C56.5763191,85.5308087 58.235612,84.22915 59.5630463,82.5724935 C60.8904806,80.9276703 61.5541978,78.8095166 61.5541978,76.2535323 C61.5541978,73.520049 60.6771429,71.2835628 58.9230333,69.5914065 C57.1689237,67.8755837 54.8696178,66.4555924 52.0251157,65.3195993 C49.1806136,64.1954396 45.9568445,63.2014457 42.3538085,62.3376176 C38.7507725,61.4856229 35.1003281,60.538962 31.4024754,59.4976351 C27.6098059,58.5509742 23.9119532,57.3913146 20.3089171,56.0186564 C16.7058811,54.6459981 13.4821121,52.8828423 10.63761,50.6936891 C7.79310786,48.5163691 5.49380199,45.7947191 3.73969235,42.5405724 C1.98558272,39.2627592 1.1085279,35.3104501 1.1085279,30.6836451 C1.1085279,25.4651771 2.22262456,20.9448715 4.45081788,17.110895 C6.6790112,13.2769186 9.59462586,10.0819382 13.1976619,7.5377871 C16.8006979,4.98180278 20.8778176,3.08848106 25.4290209,1.84598868 C29.9802243,0.62716282 34.5314277,0 39.0826311,0 C44.3923684,0 49.488768,0.603496298 54.3718299,1.77498911 C59.2548919,2.97014845 63.5927576,4.87530343 67.3854271,7.5377871 C71.1780966,10.1766042 74.188528,13.5609168 76.4167213,17.6788916 C78.6449146,21.8086996 79.7590113,26.7905023 79.7590113,32.6716329 L58.1407952,32.6716329 C57.9511617,29.6423182 57.3111488,27.1218336 56.2207563,25.1338458 C55.1303638,23.145858 53.6844086,21.5838676 51.8828906,20.4478746 C50.0813726,19.3237148 48.0191085,18.5072198 45.6960985,18.0338894 C43.3730884,17.560559 40.8367407,17.335727 38.0870553,17.335727 C36.2855373,17.335727 34.4840193,17.5132259 32.6825013,17.9037235 C30.8809833,18.2823879 29.2453946,18.9332172 27.7757352,19.8917113 C26.3060758,20.8383722 25.0971624,22.009865 24.148995,23.4298563 C23.2008276,24.8498476 22.7267439,26.6603365 22.7267439,28.8258232 C22.7267439,30.813811 23.1060109,32.4231345 23.8645448,33.6656268 C24.6230787,34.8844527 26.1164423,36.032279 28.3446356,37.0736059 C30.5728289,38.1149329 33.6543729,39.1444266 37.5892675,40.1857535 C41.5241621,41.2270805 46.66797,42.5642389 53.0206914,44.1617291 C54.9170262,44.5403935 57.5481906,45.2267226 60.9141848,46.2207165 C64.2801789,47.2147104 67.6224689,48.8122006 70.9410547,50.9776873 C74.2596405,53.1550073 77.1278468,56.0659894 79.5456736,59.722467 C81.9635004,63.3552781 83.1724138,68.0175828 83.1724138,73.697548 C83.1724138,78.3361862 82.2716548,82.6434931 80.4701368,86.6194687 C78.6686188,90.5954443 75.990046,94.0270899 72.4344183,96.9144055 C68.8787907,99.8017212 64.4698124,102.061874 59.2074835,103.671197 C53.9451546,105.268688 47.8531793,106.085183 40.9315575,106.085183 C35.33737,106.085183 29.9091118,105.38702 24.6467829,104.014362 C19.384454,102.653537 14.7384338,100.48805 10.7087225,97.5534016 C6.6790112,94.6305862 3.47894633,90.8912758 1.1085279,86.3473037 C-1.26189052,81.7914983 -2.39969137,76.3955314 -2.30487463,70.159403 L19.3133414,70.159403 C19.3133414,73.5673821 19.9296502,76.4546977 21.1622678,78.8095166" id="Fill-13" fill="#FFFFFF" mask="url(#mask-4)"></path>
                </g>
                <g id="Group-18" transform="translate(651.5172, 2.3061)">
                    <mask id="mask-6" fill="white">
                        <use xlink:href="#path-5"></use>
                    </mask>
                    <g id="Clip-17"></g>
                    <path d="M21.1622678,78.8095166 C22.3948854,81.1761688 24.0304741,83.093157 26.0690339,84.5604813 C28.1075938,86.0278057 30.5017164,87.1164656 33.2514018,87.8382946 C36.0010871,88.5364569 38.8455892,88.903288 41.7849081,88.903288 C43.7760596,88.903288 45.9094361,88.7376224 48.1850378,88.4062911 C50.4606395,88.0631265 52.5940161,87.4359637 54.5851676,86.4774696 C56.5763191,85.5308087 58.235612,84.22915 59.5630463,82.5724935 C60.8904806,80.9276703 61.5541978,78.8095166 61.5541978,76.2535323 C61.5541978,73.520049 60.6771429,71.2835628 58.9230333,69.5914065 C57.1689237,67.8755837 54.8696178,66.4555924 52.0251157,65.3195993 C49.1806136,64.1954396 45.9568445,63.2014457 42.3538085,62.3376176 C38.7507725,61.4856229 35.1003281,60.538962 31.4024754,59.4976351 C27.6098059,58.5509742 23.9119532,57.3913146 20.3089171,56.0186564 C16.7058811,54.6459981 13.4821121,52.8828423 10.63761,50.6936891 C7.79310786,48.5163691 5.49380199,45.7947191 3.73969235,42.5405724 C1.98558272,39.2627592 1.1085279,35.3104501 1.1085279,30.6836451 C1.1085279,25.4651771 2.22262456,20.9448715 4.45081788,17.110895 C6.6790112,13.2769186 9.59462586,10.0819382 13.1976619,7.5377871 C16.8006979,4.98180278 20.8778176,3.08848106 25.4290209,1.84598868 C29.9802243,0.62716282 34.5314277,0 39.0826311,0 C44.3923684,0 49.488768,0.603496298 54.3718299,1.77498911 C59.2548919,2.97014845 63.5927576,4.87530343 67.3854271,7.5377871 C71.1780966,10.1766042 74.188528,13.5609168 76.4167213,17.6788916 C78.6449146,21.8086996 79.7590113,26.7905023 79.7590113,32.6716329 L58.1407952,32.6716329 C57.9511617,29.6423182 57.3111488,27.1218336 56.2207563,25.1338458 C55.1303638,23.145858 53.6844086,21.5838676 51.8828906,20.4478746 C50.0813726,19.3237148 48.0191085,18.5072198 45.6960985,18.0338894 C43.3730884,17.560559 40.8367407,17.335727 38.0870553,17.335727 C36.2855373,17.335727 34.4840193,17.5132259 32.6825013,17.9037235 C30.8809833,18.2823879 29.2453946,18.9332172 27.7757352,19.8917113 C26.3060758,20.8383722 25.0971624,22.009865 24.148995,23.4298563 C23.2008276,24.8498476 22.7267439,26.6603365 22.7267439,28.8258232 C22.7267439,30.813811 23.1060109,32.4231345 23.8645448,33.6656268 C24.6230787,34.8844527 26.1164423,36.032279 28.3446356,37.0736059 C30.5728289,38.1149329 33.6543729,39.1444266 37.5892675,40.1857535 C41.5241621,41.2270805 46.66797,42.5642389 53.0206914,44.1617291 C54.9170262,44.5403935 57.5481906,45.2267226 60.9141848,46.2207165 C64.2801789,47.2147104 67.6224689,48.8122006 70.9410547,50.9776873 C74.2596405,53.1550073 77.1278468,56.0659894 79.5456736,59.722467 C81.9635004,63.3552781 83.1724138,68.0175828 83.1724138,73.697548 C83.1724138,78.3361862 82.2716548,82.6434931 80.4701368,86.6194687 C78.6686188,90.5954443 75.990046,94.0270899 72.4344183,96.9144055 C68.8787907,99.8017212 64.4698124,102.061874 59.2074835,103.671197 C53.9451546,105.268688 47.8531793,106.085183 40.9315575,106.085183 C35.33737,106.085183 29.9091118,105.38702 24.6467829,104.014362 C19.384454,102.653537 14.7384338,100.48805 10.7087225,97.5534016 C6.6790112,94.6305862 3.47894633,90.8912758 1.1085279,86.3473037 C-1.26189052,81.7914983 -2.39969137,76.3955314 -2.30487463,70.159403 L19.3133414,70.159403 C19.3133414,73.5673821 19.9296502,76.4546977 21.1622678,78.8095166" id="Fill-16" fill="#FFFFFF" mask="url(#mask-6)"></path>
                </g>
            </g>
        </g>
    </g>
</svg>